# xmcd CD database file
#
# Track frame offsets:
#	150
#	19156
#	40796
#	58174
#	79693
#	98105
#	117973
#	136605
#	157859
#	173590
#	192643
#	213009
#	237000
#	256818
#
# Disc length: 3709 seconds
#
# Revision: 0
# Processed by: cddbd v1.5.2PL0 Copyright (c) Steve Scherf et al.
# Submitted via: CDex 1.70beta2
#
DISCID=a80e7b0e
DTITLE=Various Artist - Salsahits 2007
DYEAR=2006
DGENRE=Salsa
TTITLE0=N'Klabe - I Love Salsa!
TTITLE1=Gilberto Santa Rosa - Sombra Loca (Alguien Me Persigue)
TTITLE2=Servando Y Florentino - Una Canción Que Te Enamore
TTITLE3=Puerto Rican Power - Bonitas (Se Ven Bonitas)
TTITLE4=Tito Rojas - Si Me Faltas Tú
TTITLE5=Tito Nieves - Tu Belleza
TTITLE6=Sexappeal - No Te Irás
TTITLE7=Victor Manuelle - Te Propongo
TTITLE8=Salserín - Envíame Mensajes
TTITLE9=Andy Montañez and Voltio - En Mi Puertorro (Locos Por Mi Habana)
TTITLE10=Eddie Santiago - Loco Por Tu Amor
TTITLE11=Orquesta Guayacán - Oiga Mire Ya Vea
TTITLE12=Radhames Rey - Piel De Angel
TTITLE13=Julián - Pecadora
EXTD=YEAR: 2006
EXTT0=
EXTT1=
EXTT2=
EXTT3=
EXTT4=
EXTT5=
EXTT6=
EXTT7=
EXTT8=
EXTT9=
EXTT10=
EXTT11=
EXTT12=
EXTT13=
PLAYORDER=
